<svg xmlns="http://www.w3.org/2000/svg" width="800" height="575" viewBox="0 0 800 575">
  <style>
    text { font-family: -apple-system, BlinkMacSystemFont, "Segoe UI", Helvetica, Arial, sans-serif; }
    .title { font-size: 16px; font-weight: 600; fill: #24292f; }
    .label { font-size: 12px; fill: #24292f; }
    .value { font-size: 11px; fill: #57606a; }
    .axis-label { font-size: 11px; fill: #57606a; }
    .legend-text { font-size: 12px; fill: #24292f; }
    .grid { stroke: #d0d7de; stroke-width: 0.5; }
  </style>
  <rect width="100%" height="100%" fill="white"/>
  <text x="400.0" y="25" text-anchor="middle" class="title">Binary Encode Throughput</text>
  <rect x="140" y="35" width="14" height="14" rx="2" fill="#4C78A8"/>
  <text x="158" y="46" class="legend-text">buffa</text>
  <rect x="209.5" y="35" width="14" height="14" rx="2" fill="#F58518"/>
  <text x="227.5" y="46" class="legend-text">prost</text>
  <rect x="279.0" y="35" width="14" height="14" rx="2" fill="#E45756"/>
  <text x="297.0" y="46" class="legend-text">protobuf-v4</text>
  <rect x="393.5" y="35" width="14" height="14" rx="2" fill="#54A24B"/>
  <text x="411.5" y="46" class="legend-text">Go</text>
  <line x1="140.0" y1="80" x2="140.0" y2="540" class="grid"/>
  <text x="140.0" y="555" text-anchor="middle" class="axis-label">0</text>
  <line x1="256.0" y1="80" x2="256.0" y2="540" class="grid"/>
  <text x="256.0" y="555" text-anchor="middle" class="axis-label">1.0k</text>
  <line x1="372.0" y1="80" x2="372.0" y2="540" class="grid"/>
  <text x="372.0" y="555" text-anchor="middle" class="axis-label">2.0k</text>
  <line x1="488.0" y1="80" x2="488.0" y2="540" class="grid"/>
  <text x="488.0" y="555" text-anchor="middle" class="axis-label">3.0k</text>
  <line x1="604.0" y1="80" x2="604.0" y2="540" class="grid"/>
  <text x="604.0" y="555" text-anchor="middle" class="axis-label">4.0k</text>
  <line x1="720.0" y1="80" x2="720.0" y2="540" class="grid"/>
  <text x="720.0" y="555" text-anchor="middle" class="axis-label">5.0k</text>
  <text x="430.0" y="570" text-anchor="middle" class="axis-label">MiB/s</text>
  <text x="130" y="134.0" text-anchor="end" class="label">ApiResponse</text>
  <rect x="140" y="80.0" width="303.1" height="22" rx="2" fill="#4C78A8"/>
  <text x="447.1" y="95.0" class="value">2,613</text>
  <rect x="140" y="106.0" width="194.9" height="22" rx="2" fill="#F58518"/>
  <text x="338.9" y="121.0" class="value">1,680</text>
  <rect x="140" y="132.0" width="121.7" height="22" rx="2" fill="#E45756"/>
  <text x="265.7" y="147.0" class="value">1,048</text>
  <rect x="140" y="158.0" width="64.5" height="22" rx="2" fill="#54A24B"/>
  <text x="208.5" y="173.0" class="value">555</text>
  <text x="130" y="254.0" text-anchor="end" class="label">LogRecord</text>
  <rect x="140" y="200.0" width="475.8" height="22" rx="2" fill="#4C78A8"/>
  <text x="619.8" y="215.0" class="value">4,101</text>
  <rect x="140" y="226.0" width="348.0" height="22" rx="2" fill="#F58518"/>
  <text x="492.0" y="241.0" class="value">3,000</text>
  <rect x="140" y="252.0" width="193.3" height="22" rx="2" fill="#E45756"/>
  <text x="337.3" y="267.0" class="value">1,666</text>
  <rect x="140" y="278.0" width="35.1" height="22" rx="2" fill="#54A24B"/>
  <text x="179.1" y="293.0" class="value">302</text>
  <text x="130" y="374.0" text-anchor="end" class="label">AnalyticsEvent</text>
  <rect x="140" y="320.0" width="76.1" height="22" rx="2" fill="#4C78A8"/>
  <text x="220.1" y="335.0" class="value">655</text>
  <rect x="140" y="346.0" width="42.5" height="22" rx="2" fill="#F58518"/>
  <text x="186.5" y="361.0" class="value">366</text>
  <rect x="140" y="372.0" width="59.3" height="22" rx="2" fill="#E45756"/>
  <text x="203.3" y="387.0" class="value">511</text>
  <rect x="140" y="398.0" width="18.5" height="22" rx="2" fill="#54A24B"/>
  <text x="162.5" y="413.0" class="value">159</text>
  <text x="130" y="494.0" text-anchor="end" class="label">GoogleMessage1</text>
  <rect x="140" y="440.0" width="306.7" height="22" rx="2" fill="#4C78A8"/>
  <text x="450.7" y="455.0" class="value">2,643</text>
  <rect x="140" y="466.0" width="216.6" height="22" rx="2" fill="#F58518"/>
  <text x="360.6" y="481.0" class="value">1,867</text>
  <rect x="140" y="492.0" width="101.2" height="22" rx="2" fill="#E45756"/>
  <text x="245.2" y="507.0" class="value">872</text>
  <rect x="140" y="518.0" width="41.6" height="22" rx="2" fill="#54A24B"/>
  <text x="185.6" y="533.0" class="value">358</text>
</svg>
