<svg xmlns="http://www.w3.org/2000/svg" width="800" height="679" viewBox="0 0 800 679">
  <style>
    text { font-family: -apple-system, BlinkMacSystemFont, "Segoe UI", Helvetica, Arial, sans-serif; }
    .title { font-size: 16px; font-weight: 600; fill: #24292f; }
    .label { font-size: 12px; fill: #24292f; }
    .value { font-size: 11px; fill: #57606a; }
    .axis-label { font-size: 11px; fill: #57606a; }
    .legend-text { font-size: 12px; fill: #24292f; }
    .grid { stroke: #d0d7de; stroke-width: 0.5; }
  </style>
  <rect width="100%" height="100%" fill="white"/>
  <text x="400.0" y="25" text-anchor="middle" class="title">Binary Decode Throughput</text>
  <rect x="140" y="35" width="14" height="14" rx="2" fill="#4C78A8"/>
  <text x="158" y="46" class="legend-text">buffa</text>
  <rect x="209.5" y="35" width="14" height="14" rx="2" fill="#72B7B2"/>
  <text x="227.5" y="46" class="legend-text">buffa (view)</text>
  <rect x="331.5" y="35" width="14" height="14" rx="2" fill="#F58518"/>
  <text x="349.5" y="46" class="legend-text">prost</text>
  <rect x="401.0" y="35" width="14" height="14" rx="2" fill="#E45756"/>
  <text x="419.0" y="46" class="legend-text">protobuf-v4</text>
  <rect x="515.5" y="35" width="14" height="14" rx="2" fill="#54A24B"/>
  <text x="533.5" y="46" class="legend-text">Go</text>
  <line x1="140.0" y1="80" x2="140.0" y2="644" class="grid"/>
  <text x="140.0" y="659" text-anchor="middle" class="axis-label">0</text>
  <line x1="256.0" y1="80" x2="256.0" y2="644" class="grid"/>
  <text x="256.0" y="659" text-anchor="middle" class="axis-label">400</text>
  <line x1="372.0" y1="80" x2="372.0" y2="644" class="grid"/>
  <text x="372.0" y="659" text-anchor="middle" class="axis-label">800</text>
  <line x1="488.0" y1="80" x2="488.0" y2="644" class="grid"/>
  <text x="488.0" y="659" text-anchor="middle" class="axis-label">1.2k</text>
  <line x1="604.0" y1="80" x2="604.0" y2="644" class="grid"/>
  <text x="604.0" y="659" text-anchor="middle" class="axis-label">1.6k</text>
  <line x1="720.0" y1="80" x2="720.0" y2="644" class="grid"/>
  <text x="720.0" y="659" text-anchor="middle" class="axis-label">2.0k</text>
  <text x="430.0" y="674" text-anchor="middle" class="axis-label">MiB/s</text>
  <text x="130" y="147.0" text-anchor="end" class="label">ApiResponse</text>
  <rect x="140" y="80.0" width="241.8" height="22" rx="2" fill="#4C78A8"/>
  <text x="385.8" y="95.0" class="value">833</text>
  <rect x="140" y="106.0" width="409.7" height="22" rx="2" fill="#72B7B2"/>
  <text x="553.7" y="121.0" class="value">1,412</text>
  <rect x="140" y="132.0" width="222.2" height="22" rx="2" fill="#F58518"/>
  <text x="366.2" y="147.0" class="value">766</text>
  <rect x="140" y="158.0" width="206.4" height="22" rx="2" fill="#E45756"/>
  <text x="350.4" y="173.0" class="value">711</text>
  <rect x="140" y="184.0" width="78.4" height="22" rx="2" fill="#54A24B"/>
  <text x="222.4" y="199.0" class="value">270</text>
  <text x="130" y="293.0" text-anchor="end" class="label">LogRecord</text>
  <rect x="140" y="226.0" width="222.6" height="22" rx="2" fill="#4C78A8"/>
  <text x="366.6" y="241.0" class="value">767</text>
  <rect x="140" y="252.0" width="557.0" height="22" rx="2" fill="#72B7B2"/>
  <text x="701.0" y="267.0" class="value">1,920</text>
  <rect x="140" y="278.0" width="197.4" height="22" rx="2" fill="#F58518"/>
  <text x="341.4" y="293.0" class="value">680</text>
  <rect x="140" y="304.0" width="253.3" height="22" rx="2" fill="#E45756"/>
  <text x="397.3" y="319.0" class="value">873</text>
  <rect x="140" y="330.0" width="72.3" height="22" rx="2" fill="#54A24B"/>
  <text x="216.3" y="345.0" class="value">249</text>
  <text x="130" y="439.0" text-anchor="end" class="label">AnalyticsEvent</text>
  <rect x="140" y="372.0" width="57.4" height="22" rx="2" fill="#4C78A8"/>
  <text x="201.4" y="387.0" class="value">197</text>
  <rect x="140" y="398.0" width="91.6" height="22" rx="2" fill="#72B7B2"/>
  <text x="235.6" y="413.0" class="value">316</text>
  <rect x="140" y="424.0" width="73.2" height="22" rx="2" fill="#F58518"/>
  <text x="217.2" y="439.0" class="value">252</text>
  <rect x="140" y="450.0" width="103.9" height="22" rx="2" fill="#E45756"/>
  <text x="247.9" y="465.0" class="value">358</text>
  <rect x="140" y="476.0" width="26.4" height="22" rx="2" fill="#54A24B"/>
  <text x="170.4" y="491.0" class="value">91</text>
  <text x="130" y="585.0" text-anchor="end" class="label">GoogleMessage1</text>
  <rect x="140" y="518.0" width="297.0" height="22" rx="2" fill="#4C78A8"/>
  <text x="441.0" y="533.0" class="value">1,024</text>
  <rect x="140" y="544.0" width="383.3" height="22" rx="2" fill="#72B7B2"/>
  <text x="527.3" y="559.0" class="value">1,321</text>
  <rect x="140" y="570.0" width="289.5" height="22" rx="2" fill="#F58518"/>
  <text x="433.5" y="585.0" class="value">998</text>
  <rect x="140" y="596.0" width="188.0" height="22" rx="2" fill="#E45756"/>
  <text x="332.0" y="611.0" class="value">648</text>
  <rect x="140" y="622.0" width="99.9" height="22" rx="2" fill="#54A24B"/>
  <text x="243.9" y="637.0" class="value">344</text>
</svg>
