<svg xmlns="http://www.w3.org/2000/svg" width="800" height="471" viewBox="0 0 800 471">
  <style>
    text { font-family: -apple-system, BlinkMacSystemFont, "Segoe UI", Helvetica, Arial, sans-serif; }
    .title { font-size: 16px; font-weight: 600; fill: #24292f; }
    .label { font-size: 12px; fill: #24292f; }
    .value { font-size: 11px; fill: #57606a; }
    .axis-label { font-size: 11px; fill: #57606a; }
    .legend-text { font-size: 12px; fill: #24292f; }
    .grid { stroke: #d0d7de; stroke-width: 0.5; }
  </style>
  <rect width="100%" height="100%" fill="white"/>
  <text x="400.0" y="25" text-anchor="middle" class="title">JSON Encode Throughput</text>
  <rect x="140" y="35" width="14" height="14" rx="2" fill="#4C78A8"/>
  <text x="158" y="46" class="legend-text">buffa</text>
  <rect x="209.5" y="35" width="14" height="14" rx="2" fill="#F58518"/>
  <text x="227.5" y="46" class="legend-text">prost</text>
  <rect x="279.0" y="35" width="14" height="14" rx="2" fill="#54A24B"/>
  <text x="297.0" y="46" class="legend-text">Go</text>
  <line x1="140.0" y1="80" x2="140.0" y2="436" class="grid"/>
  <text x="140.0" y="451" text-anchor="middle" class="axis-label">0</text>
  <line x1="256.0" y1="80" x2="256.0" y2="436" class="grid"/>
  <text x="256.0" y="451" text-anchor="middle" class="axis-label">400</text>
  <line x1="372.0" y1="80" x2="372.0" y2="436" class="grid"/>
  <text x="372.0" y="451" text-anchor="middle" class="axis-label">800</text>
  <line x1="488.0" y1="80" x2="488.0" y2="436" class="grid"/>
  <text x="488.0" y="451" text-anchor="middle" class="axis-label">1.2k</text>
  <line x1="604.0" y1="80" x2="604.0" y2="436" class="grid"/>
  <text x="604.0" y="451" text-anchor="middle" class="axis-label">1.6k</text>
  <line x1="720.0" y1="80" x2="720.0" y2="436" class="grid"/>
  <text x="720.0" y="451" text-anchor="middle" class="axis-label">2.0k</text>
  <text x="430.0" y="466" text-anchor="middle" class="axis-label">MiB/s</text>
  <text x="130" y="121.0" text-anchor="end" class="label">ApiResponse</text>
  <rect x="140" y="80.0" width="251.3" height="22" rx="2" fill="#4C78A8"/>
  <text x="395.3" y="95.0" class="value">866</text>
  <rect x="140" y="106.0" width="233.5" height="22" rx="2" fill="#F58518"/>
  <text x="377.5" y="121.0" class="value">805</text>
  <rect x="140" y="132.0" width="33.7" height="22" rx="2" fill="#54A24B"/>
  <text x="177.7" y="147.0" class="value">116</text>
  <text x="130" y="215.0" text-anchor="end" class="label">LogRecord</text>
  <rect x="140" y="174.0" width="380.4" height="22" rx="2" fill="#4C78A8"/>
  <text x="524.4" y="189.0" class="value">1,311</text>
  <rect x="140" y="200.0" width="314.0" height="22" rx="2" fill="#F58518"/>
  <text x="458.0" y="215.0" class="value">1,082</text>
  <rect x="140" y="226.0" width="40.7" height="22" rx="2" fill="#54A24B"/>
  <text x="184.7" y="241.0" class="value">140</text>
  <text x="130" y="309.0" text-anchor="end" class="label">AnalyticsEvent</text>
  <rect x="140" y="268.0" width="225.3" height="22" rx="2" fill="#4C78A8"/>
  <text x="369.3" y="283.0" class="value">776</text>
  <rect x="140" y="294.0" width="220.0" height="22" rx="2" fill="#F58518"/>
  <text x="364.0" y="309.0" class="value">758</text>
  <rect x="140" y="320.0" width="14.9" height="22" rx="2" fill="#54A24B"/>
  <text x="158.9" y="335.0" class="value">51</text>
  <text x="130" y="403.0" text-anchor="end" class="label">GoogleMessage1</text>
  <rect x="140" y="362.0" width="296.0" height="22" rx="2" fill="#4C78A8"/>
  <text x="440.0" y="377.0" class="value">1,020</text>
  <rect x="140" y="388.0" width="240.6" height="22" rx="2" fill="#F58518"/>
  <text x="384.6" y="403.0" class="value">829</text>
  <rect x="140" y="414.0" width="37.0" height="22" rx="2" fill="#54A24B"/>
  <text x="181.0" y="429.0" class="value">127</text>
</svg>
