<svg xmlns="http://www.w3.org/2000/svg" width="800" height="471" viewBox="0 0 800 471">
  <style>
    text { font-family: -apple-system, BlinkMacSystemFont, "Segoe UI", Helvetica, Arial, sans-serif; }
    .title { font-size: 16px; font-weight: 600; fill: #24292f; }
    .label { font-size: 12px; fill: #24292f; }
    .value { font-size: 11px; fill: #57606a; }
    .axis-label { font-size: 11px; fill: #57606a; }
    .legend-text { font-size: 12px; fill: #24292f; }
    .grid { stroke: #d0d7de; stroke-width: 0.5; }
  </style>
  <rect width="100%" height="100%" fill="white"/>
  <text x="400.0" y="25" text-anchor="middle" class="title">JSON Decode Throughput</text>
  <rect x="140" y="35" width="14" height="14" rx="2" fill="#4C78A8"/>
  <text x="158" y="46" class="legend-text">buffa</text>
  <rect x="209.5" y="35" width="14" height="14" rx="2" fill="#F58518"/>
  <text x="227.5" y="46" class="legend-text">prost</text>
  <rect x="279.0" y="35" width="14" height="14" rx="2" fill="#54A24B"/>
  <text x="297.0" y="46" class="legend-text">Go</text>
  <line x1="140.0" y1="80" x2="140.0" y2="436" class="grid"/>
  <text x="140.0" y="451" text-anchor="middle" class="axis-label">0</text>
  <line x1="256.0" y1="80" x2="256.0" y2="436" class="grid"/>
  <text x="256.0" y="451" text-anchor="middle" class="axis-label">160</text>
  <line x1="372.0" y1="80" x2="372.0" y2="436" class="grid"/>
  <text x="372.0" y="451" text-anchor="middle" class="axis-label">320</text>
  <line x1="488.0" y1="80" x2="488.0" y2="436" class="grid"/>
  <text x="488.0" y="451" text-anchor="middle" class="axis-label">480</text>
  <line x1="604.0" y1="80" x2="604.0" y2="436" class="grid"/>
  <text x="604.0" y="451" text-anchor="middle" class="axis-label">640</text>
  <line x1="720.0" y1="80" x2="720.0" y2="436" class="grid"/>
  <text x="720.0" y="451" text-anchor="middle" class="axis-label">800</text>
  <text x="430.0" y="466" text-anchor="middle" class="axis-label">MiB/s</text>
  <text x="130" y="121.0" text-anchor="end" class="label">ApiResponse</text>
  <rect x="140" y="80.0" width="520.5" height="22" rx="2" fill="#4C78A8"/>
  <text x="664.5" y="95.0" class="value">717</text>
  <rect x="140" y="106.0" width="212.6" height="22" rx="2" fill="#F58518"/>
  <text x="356.6" y="121.0" class="value">293</text>
  <rect x="140" y="132.0" width="51.1" height="22" rx="2" fill="#54A24B"/>
  <text x="195.1" y="147.0" class="value">70</text>
  <text x="130" y="215.0" text-anchor="end" class="label">LogRecord</text>
  <rect x="140" y="174.0" width="578.1" height="22" rx="2" fill="#4C78A8"/>
  <text x="722.1" y="189.0" class="value">797</text>
  <rect x="140" y="200.0" width="500.2" height="22" rx="2" fill="#F58518"/>
  <text x="644.2" y="215.0" class="value">689</text>
  <rect x="140" y="226.0" width="79.8" height="22" rx="2" fill="#54A24B"/>
  <text x="223.8" y="241.0" class="value">110</text>
  <text x="130" y="309.0" text-anchor="end" class="label">AnalyticsEvent</text>
  <rect x="140" y="268.0" width="192.2" height="22" rx="2" fill="#4C78A8"/>
  <text x="336.2" y="283.0" class="value">265</text>
  <rect x="140" y="294.0" width="170.4" height="22" rx="2" fill="#F58518"/>
  <text x="314.4" y="309.0" class="value">235</text>
  <rect x="140" y="320.0" width="33.4" height="22" rx="2" fill="#54A24B"/>
  <text x="177.4" y="335.0" class="value">46</text>
  <text x="130" y="403.0" text-anchor="end" class="label">GoogleMessage1</text>
  <rect x="140" y="362.0" width="468.3" height="22" rx="2" fill="#4C78A8"/>
  <text x="612.3" y="377.0" class="value">645</text>
  <rect x="140" y="388.0" width="185.0" height="22" rx="2" fill="#F58518"/>
  <text x="329.0" y="403.0" class="value">255</text>
  <rect x="140" y="414.0" width="52.7" height="22" rx="2" fill="#54A24B"/>
  <text x="196.7" y="429.0" class="value">72</text>
</svg>
